<?xml version="1.0" encoding="iso-8859-1"?>
<!-- Uploaded to: SVG Repo, www.svgrepo.com, Generator: SVG Repo Mixer Tools -->
<svg version="1.1" id="Layer_1" xmlns="http://www.w3.org/2000/svg" xmlns:xlink="http://www.w3.org/1999/xlink" 
	 viewBox="0 0 512 512" xml:space="preserve">
<path style="fill:#D8F4F2;" d="M503.434,190.188c-11.183-42.204-33.313-82.109-66.408-115.206
	c-99.976-99.976-262.068-99.976-362.042,0s-99.976,262.068,0,362.042c34.202,34.202,75.674,56.697,119.442,67.497L503.434,190.188z"
	/>
<path style="fill:#B1EAE5;" d="M437.026,437.025c66.879-66.879,89.008-161.553,66.408-246.837l-79.001-79.001l-55.093,70.835
	L83.94,340.517L73.41,383.505l121.016,121.016C278.595,525.293,371.253,502.798,437.026,437.025z"/>
<path style="fill:#616F6D;" d="M424.433,111.186L404.756,91.51h-31.482v31.482l19.677,19.677L306.77,228.85l-39.746,24.005
	l15.742-0.001l-23.612,23.612c-6.519,6.519-6.52,17.091,0,23.611c6.52,6.52,17.092,6.519,23.611,0l141.669-141.669
	C437.474,145.369,437.474,124.227,424.433,111.186z"/>
<path style="fill:#889391;" d="M392.951,79.705c-17.387-17.387-45.576-17.387-62.964,0l43.288,43.288l31.482-31.482L392.951,79.705z
	"/>
<path style="fill:#F63341;" d="M385.081,182.021c-13.041-13.041-31.482-31.482-31.482-31.482l-55.093-23.611L104.891,352.024
	c4.346,4.346,4.346,11.394,0,15.741c-4.346,4.346-11.394,4.346-15.741,0H73.41v15.741c13.041,13.041,34.183,13.041,47.222,0
	l122.78-122.78h31.482l47.223-47.222l15.741,15.741c13.041,13.041,34.183,13.041,47.223,0
	C398.121,216.204,398.121,195.062,385.081,182.021z"/>
<path style="fill:#F85C67;" d="M89.151,352.024c4.346-4.346,11.394-4.346,15.741,0l217.225-217.225l-31.482-15.741L73.41,336.283
	c-13.041,13.041-13.041,34.183,0,47.223l15.741-15.741C84.804,363.418,84.804,356.37,89.151,352.024z"/>
<rect x="322.783" y="129.908" transform="matrix(-0.7071 0.7071 -0.7071 -0.7071 673.6912 14.1555)" style="fill:#616F6D;" width="22.261" height="33.391"/>
<rect x="293.611" y="111.86" transform="matrix(-0.7071 -0.7071 0.7071 -0.7071 442.7597 429.3772)" style="fill:#889391;" width="33.391" height="22.261"/>
<polygon style="fill:#263230;" points="274.894,229.244 322.118,276.467 337.858,260.726 322.118,229.244 290.635,213.503 "/>
<rect x="310.985" y="195.854" transform="matrix(-0.7071 0.7071 -0.7071 -0.7071 711.9863 163.5762)" style="fill:#394B48;" width="22.261" height="66.783"/>
</svg>